<svg xmlns="http://www.w3.org/2000/svg" viewBox="0 0 1200 420">
<rect x="0" y="0" width="1200" height="420" fill="#f8fafc" />
<text x="600" y="22" text-anchor="middle" font-size="16" font-weight="600" fill="#0f172a">Cumulative Month docc Files (2026-01 - 2026-02)</text>
<line x1="60" y1="340" x2="1180" y2="340" stroke="#cbd5e1" stroke-width="1" />
<g font-family="monospace" font-size="11" fill="#1e293b">
<line x1="60" y1="340.0" x2="1180" y2="340.0" stroke="#e2e8f0" stroke-width="1" />
<text x="52" y="343.0" text-anchor="end">0</text>
<line x1="60" y1="266.72727272727275" x2="1180" y2="266.72727272727275" stroke="#e2e8f0" stroke-width="1" />
<text x="52" y="269.72727272727275" text-anchor="end">13</text>
<line x1="60" y1="193.45454545454547" x2="1180" y2="193.45454545454547" stroke="#e2e8f0" stroke-width="1" />
<text x="52" y="196.45454545454547" text-anchor="end">26</text>
<line x1="60" y1="120.18181818181819" x2="1180" y2="120.18181818181819" stroke="#e2e8f0" stroke-width="1" />
<text x="52" y="123.18181818181819" text-anchor="end">39</text>
<line x1="60" y1="46.909090909090935" x2="1180" y2="46.909090909090935" stroke="#e2e8f0" stroke-width="1" />
<text x="52" y="49.909090909090935" text-anchor="end">52</text>
</g>
<g font-family="monospace">
<rect x="60.0" y="30.0" width="559.0" height="310.0" fill="#0ea5e9" rx="2"/>
<text x="339.5" y="370" transform="rotate(-45 339.5,370)" text-anchor="middle" font-size="8" fill="#334155">2026-01</text>
<text x="339.5" y="26" text-anchor="middle" font-size="9" fill="#334155">55</text>
<rect x="621.0" y="340.0" width="559.0" height="0.0" fill="#0ea5e9" rx="2"/>
<text x="900.5" y="370" transform="rotate(-45 900.5,370)" text-anchor="middle" font-size="8" fill="#334155">2026-02</text>
<text x="900.5" y="336" text-anchor="middle" font-size="9" fill="#334155">0</text>
</g>
</svg>