<svg xmlns="http://www.w3.org/2000/svg" viewBox="0 0 1200 420">
<rect x="0" y="0" width="1200" height="420" fill="#f8fafc" />
<text x="600" y="22" text-anchor="middle" font-size="16" font-weight="600" fill="#0f172a">Cumulative Month md Files (2026-01 - 2026-02)</text>
<line x1="60" y1="340" x2="1180" y2="340" stroke="#cbd5e1" stroke-width="1" />
<g font-family="monospace" font-size="11" fill="#1e293b">
<line x1="60" y1="340.0" x2="1180" y2="340.0" stroke="#e2e8f0" stroke-width="1" />
<text x="52" y="343.0" text-anchor="end">0</text>
<line x1="60" y1="262.73413897280966" x2="1180" y2="262.73413897280966" stroke="#e2e8f0" stroke-width="1" />
<text x="52" y="265.73413897280966" text-anchor="end">165</text>
<line x1="60" y1="185.46827794561932" x2="1180" y2="185.46827794561932" stroke="#e2e8f0" stroke-width="1" />
<text x="52" y="188.46827794561932" text-anchor="end">330</text>
<line x1="60" y1="108.20241691842898" x2="1180" y2="108.20241691842898" stroke="#e2e8f0" stroke-width="1" />
<text x="52" y="111.20241691842898" text-anchor="end">495</text>
<line x1="60" y1="30.93655589123864" x2="1180" y2="30.93655589123864" stroke="#e2e8f0" stroke-width="1" />
<text x="52" y="33.93655589123864" text-anchor="end">660</text>
</g>
<g font-family="monospace">
<rect x="60.0" y="30.0" width="559.0" height="310.0" fill="#8b5cf6" rx="2"/>
<text x="339.5" y="370" transform="rotate(-45 339.5,370)" text-anchor="middle" font-size="8" fill="#334155">2026-01</text>
<text x="339.5" y="26" text-anchor="middle" font-size="9" fill="#334155">662</text>
<rect x="621.0" y="337.19033232628396" width="559.0" height="2.8096676737160124" fill="#8b5cf6" rx="2"/>
<text x="900.5" y="370" transform="rotate(-45 900.5,370)" text-anchor="middle" font-size="8" fill="#334155">2026-02</text>
<text x="900.5" y="333" text-anchor="middle" font-size="9" fill="#334155">6</text>
</g>
</svg>