<svg xmlns="http://www.w3.org/2000/svg" viewBox="0 0 1180 360">
<text x="64" y="44" fill="#0f172a" font-size="30" font-weight="600" font-family="-apple-system, SF Pro Text, system-ui, sans-serif">wrkstrm ecosystem stats</text>
<text x="64" y="72" fill="#334155" font-size="14" font-family="-apple-system, SF Pro Text, system-ui, sans-serif">Owner activity window: Jan 1, 2026 → Feb 23, 2026</text>
<text x="64" y="95" fill="#64748b" font-size="12" font-family="-apple-system, SF Pro Text, system-ui, sans-serif">Source: swift-repo-stats-cli</text>
<rect x="64" y="116" width="330" height="200" rx="18" fill="#2563eb20" stroke="#2563eb" stroke-width="2" opacity="0.85"/>
<text x="82" y="154" fill="#93c5fd" font-size="12" font-family="-apple-system, SF Pro Text, system-ui, sans-serif" letter-spacing="0.4" font-weight="600">Source control / git</text>
<text x="82" y="200" fill="#0f172a" font-size="34" font-family="-apple-system, SF Pro Text, system-ui, sans-serif" font-weight="700">708 · 1</text>
<text x="82" y="238" fill="#1e293b" font-size="14" font-family="-apple-system, SF Pro Text, system-ui, sans-serif">Week commits + latest submodule scope window</text>
<rect x="82" y="264" width="294" height="8" rx="999" fill="#2563eb" opacity="0.33"/>
<rect x="82" y="264" width="294" height="8" rx="999" fill="#93c5fd" opacity="0.78"/>
<circle cx="86" cy="292" r="3" fill="#2563eb"/>
<circle cx="108" cy="292" r="3" fill="#93c5fd"/>
<circle cx="130" cy="292" r="3" fill="#38bdf8"/>
<text x="82" y="306" fill="#475569" font-size="11" font-family="-apple-system, SF Pro Text, system-ui, sans-serif">Trend snapshot for dashboard snapshots.</text>
<rect x="426" y="116" width="330" height="200" rx="18" fill="#0f766e20" stroke="#0f766e" stroke-width="2" opacity="0.85"/>
<text x="444" y="154" fill="#5eead4" font-size="12" font-family="-apple-system, SF Pro Text, system-ui, sans-serif" letter-spacing="0.4" font-weight="600">Compilable code</text>
<text x="444" y="200" fill="#0f172a" font-size="34" font-family="-apple-system, SF Pro Text, system-ui, sans-serif" font-weight="700">27 · 6</text>
<text x="444" y="238" fill="#1e293b" font-size="14" font-family="-apple-system, SF Pro Text, system-ui, sans-serif">Month `.swift` + Month `Package.swift` window</text>
<rect x="444" y="264" width="294" height="8" rx="999" fill="#0f766e" opacity="0.33"/>
<rect x="444" y="264" width="294" height="8" rx="999" fill="#5eead4" opacity="0.78"/>
<circle cx="448" cy="292" r="3" fill="#0f766e"/>
<circle cx="470" cy="292" r="3" fill="#5eead4"/>
<circle cx="492" cy="292" r="3" fill="#38bdf8"/>
<text x="444" y="306" fill="#475569" font-size="11" font-family="-apple-system, SF Pro Text, system-ui, sans-serif">Trend snapshot for dashboard snapshots.</text>
<rect x="788" y="116" width="330" height="200" rx="18" fill="#8b5cf620" stroke="#8b5cf6" stroke-width="2" opacity="0.85"/>
<text x="806" y="154" fill="#ddd6fe" font-size="12" font-family="-apple-system, SF Pro Text, system-ui, sans-serif" letter-spacing="0.4" font-weight="600">Machine-readable protocol files and bundles</text>
<text x="806" y="200" fill="#0f172a" font-size="34" font-family="-apple-system, SF Pro Text, system-ui, sans-serif" font-weight="700">6 · 0</text>
<text x="806" y="238" fill="#1e293b" font-size="14" font-family="-apple-system, SF Pro Text, system-ui, sans-serif">Month `.md` + `.docc` window</text>
<rect x="806" y="264" width="294" height="8" rx="999" fill="#8b5cf6" opacity="0.33"/>
<rect x="806" y="264" width="294" height="8" rx="999" fill="#ddd6fe" opacity="0.78"/>
<circle cx="810" cy="292" r="3" fill="#8b5cf6"/>
<circle cx="832" cy="292" r="3" fill="#ddd6fe"/>
<circle cx="854" cy="292" r="3" fill="#38bdf8"/>
<text x="806" y="306" fill="#475569" font-size="11" font-family="-apple-system, SF Pro Text, system-ui, sans-serif">Trend snapshot for dashboard snapshots.</text>
</svg>