<svg xmlns="http://www.w3.org/2000/svg" viewBox="0 0 1200 420">
<rect x="0" y="0" width="1200" height="420" fill="#f8fafc" />
<text x="600" y="22" text-anchor="middle" font-size="16" font-weight="600" fill="#0f172a">Cumulative Month swift Files (2026-01 - 2026-02)</text>
<line x1="60" y1="340" x2="1180" y2="340" stroke="#cbd5e1" stroke-width="1" />
<g font-family="monospace" font-size="11" fill="#1e293b">
<line x1="60" y1="340.0" x2="1180" y2="340.0" stroke="#e2e8f0" stroke-width="1" />
<text x="52" y="343.0" text-anchor="end">0</text>
<line x1="60" y1="262.5198057756197" x2="1180" y2="262.5198057756197" stroke="#e2e8f0" stroke-width="1" />
<text x="52" y="265.5198057756197" text-anchor="end">978</text>
<line x1="60" y1="185.03961155123946" x2="1180" y2="185.03961155123946" stroke="#e2e8f0" stroke-width="1" />
<text x="52" y="188.03961155123946" text-anchor="end">1956</text>
<line x1="60" y1="107.55941732685918" x2="1180" y2="107.55941732685918" stroke="#e2e8f0" stroke-width="1" />
<text x="52" y="110.55941732685918" text-anchor="end">2934</text>
<line x1="60" y1="30.07922310247892" x2="1180" y2="30.07922310247892" stroke="#e2e8f0" stroke-width="1" />
<text x="52" y="33.07922310247892" text-anchor="end">3912</text>
</g>
<g font-family="monospace">
<rect x="60.0" y="38.714541272680776" width="559.0" height="301.2854587273192" fill="#0f766e" rx="2"/>
<text x="339.5" y="370" transform="rotate(-45 339.5,370)" text-anchor="middle" font-size="8" fill="#334155">2026-01</text>
<text x="339.5" y="34" text-anchor="middle" font-size="9" fill="#334155">3803</text>
<rect x="621.0" y="30.0" width="559.0" height="310.0" fill="#0f766e" rx="2"/>
<text x="900.5" y="370" transform="rotate(-45 900.5,370)" text-anchor="middle" font-size="8" fill="#334155">2026-02</text>
<text x="900.5" y="26" text-anchor="middle" font-size="9" fill="#334155">3913</text>
</g>
</svg>