<svg xmlns="http://www.w3.org/2000/svg" viewBox="0 0 900 420">
<rect x="0" y="0" width="900" height="420" fill="#f8fafc" />
<text x="450" y="22" text-anchor="middle" font-size="16" font-weight="600" fill="#0f172a">Cumulative `Package.swift` Activity (2026-01 - 2026-02)</text>
<line x1="60" y1="340" x2="880" y2="340" stroke="#cbd5e1" stroke-width="1" />
<g font-family="monospace" font-size="11" fill="#1e293b">
<line x1="60" y1="340.0" x2="880" y2="340.0" stroke="#e2e8f0" stroke-width="1" />
<text x="52" y="343.0" text-anchor="end">0</text>
<line x1="60" y1="263.8922155688623" x2="880" y2="263.8922155688623" stroke="#e2e8f0" stroke-width="1" />
<text x="52" y="266.8922155688623" text-anchor="end">41</text>
<line x1="60" y1="187.78443113772457" x2="880" y2="187.78443113772457" stroke="#e2e8f0" stroke-width="1" />
<text x="52" y="190.78443113772457" text-anchor="end">82</text>
<line x1="60" y1="111.67664670658681" x2="880" y2="111.67664670658681" stroke="#e2e8f0" stroke-width="1" />
<text x="52" y="114.67664670658681" text-anchor="end">123</text>
<line x1="60" y1="35.568862275449135" x2="880" y2="35.568862275449135" stroke="#e2e8f0" stroke-width="1" />
<text x="52" y="38.568862275449135" text-anchor="end">164</text>
</g>
<g font-family="monospace">
<rect x="60.0" y="63.41317365269458" width="406.0" height="276.5868263473054" fill="#ef4444" rx="2"/>
<text x="263.0" y="370" transform="rotate(-45 263.0,370)" text-anchor="middle" font-size="10" fill="#334155">2026-01</text>
<text x="263.0" y="57" text-anchor="middle" font-size="10" fill="#334155">149</text>
<rect x="474.0" y="30.0" width="406.0" height="310.0" fill="#ef4444" rx="2"/>
<text x="677.0" y="370" transform="rotate(-45 677.0,370)" text-anchor="middle" font-size="10" fill="#334155">2026-02</text>
<text x="677.0" y="24" text-anchor="middle" font-size="10" fill="#334155">167</text>
</g>
</svg>